<svg xmlns="http://www.w3.org/2000/svg" viewBox="0 0 478.46 794.01"><defs><style>.cls-1,.cls-4,.cls-5{stroke:#000;stroke-miterlimit:10;}.cls-2{fill:#00f940;}.cls-3{fill:#0c0201;}.cls-4{fill:aqua;}.cls-5{fill:#c1272d;}</style></defs><g id="レイヤー_2" data-name="レイヤー 2"><g id="レイヤー_1-2" data-name="レイヤー 1"><path class="cls-1" d="M105.73,527a220.59,220.59,0,0,1-18-108.51A221.5,221.5,0,0,0,54.46,650.59C103.84,762.51,234.6,813.21,346.53,763.83A221.43,221.43,0,0,0,477.82,580.27a220.5,220.5,0,0,1-80,59.93C285.88,689.58,155.11,638.88,105.73,527Z"/><circle class="cls-2" cx="228.35" cy="228.35" r="195.35" transform="translate(-94.59 228.35) rotate(-45)"/><path class="cls-3" d="M228.35,66a162.35,162.35,0,1,1-114.8,47.55A161.33,161.33,0,0,1,228.35,66m0-66C102.24,0,0,102.24,0,228.35S102.24,456.71,228.35,456.71,456.71,354.47,456.71,228.35,354.47,0,228.35,0Z"/><line class="cls-2" x1="33" y1="794.01" x2="33" y2="230.79"/><rect class="cls-3" y="230.79" width="66" height="563.22"/><path d="M328.41,118a148.61,148.61,0,0,1-34.58,117L143.3,105.8a148.55,148.55,0,0,0-28.12,25.41l.24.21A149,149,0,0,0,128.3,338.74a148.61,148.61,0,0,1,34.58-117L313.41,350.91a149.51,149.51,0,0,0,28.12-25.41l-.25-.21A149,149,0,0,0,328.41,118Z"/><path class="cls-4" d="M200.07,689.8a50.16,50.16,0,1,1-100.31,0c0-27.7,50.15-89.21,50.15-89.21S200.07,662.1,200.07,689.8Z"/><path class="cls-5" d="M293.84,733A43.44,43.44,0,0,1,207,733c0-24,43.44-77.26,43.44-77.26S293.84,709.05,293.84,733Z"/></g></g></svg>